PathFileType	4	(X/Y/Z)	/Users/itak/Documents/Research/Walk-IL/dataset/trc/00525_00183.trc
DataRate	CameraRate	NumFrames	NumMarkers	Units	OrigDataRate	OrigDataStartFrame	OrigNumFrames
100.000000	100.000000	4	53	mm	100.000000	489	559
Frame#	Time	RPSI			LPSI			L3			STRN			T10			C7			CLAV			RBAK			LBAK			LSHO			LUPA			LAEL			LAOL			LWTS			LWPS			LFRA			LIFD			LHPS			LHTS			RSHO			RUPA			RAEL			RAOL			RWTS			RWPS			RFRA			RIFD			RHTS			RHPS			RBHD			LFHD			RFHD			LBHD			LHIP			RHIP			RASI			LASI			LKNE			LTHI			LANK			LTIP			LTOE			LMT1			LMT5			LHEE			RKNE			RTHI			RANK			RTIP			RTOE			RMT1			RMT5			RHEE			
		X1	Y1	Z1	X2	Y2	Z2	X3	Y3	Z3	X4	Y4	Z4	X5	Y5	Z5	X6	Y6	Z6	X7	Y7	Z7	X8	Y8	Z8	X9	Y9	Z9	X10	Y10	Z10	X11	Y11	Z11	X12	Y12	Z12	X13	Y13	Z13	X14	Y14	Z14	X15	Y15	Z15	X16	Y16	Z16	X17	Y17	Z17	X18	Y18	Z18	X19	Y19	Z19	X20	Y20	Z20	X21	Y21	Z21	X22	Y22	Z22	X23	Y23	Z23	X24	Y24	Z24	X25	Y25	Z25	X26	Y26	Z26	X27	Y27	Z27	X28	Y28	Z28	X29	Y29	Z29	X30	Y30	Z30	X31	Y31	Z31	X32	Y32	Z32	X33	Y33	Z33	X34	Y34	Z34	X35	Y35	Z35	X36	Y36	Z36	X37	Y37	Z37	X38	Y38	Z38	X39	Y39	Z39	X40	Y40	Z40	X41	Y41	Z41	X42	Y42	Z42	X43	Y43	Z43	X44	Y44	Z44	X45	Y45	Z45	X46	Y46	Z46	X47	Y47	Z47	X48	Y48	Z48	X49	Y49	Z49	X50	Y50	Z50	X51	Y51	Z51	X52	Y52	Z52	X53	Y53	Z53	

490	4.89	765.1856689453125	959.9310913085938	562.1458129882812	836.49560546875	954.9459838867188	461.3366394042969	799.8279418945312	1025.213500976562	503.089599609375	983.9010620117188	1196.496948242188	603.514404296875	782.0389404296875	1126.892333984375	491.6720581054688	810.5690307617188	1359.8076171875	504.5703735351562	950.0231323242188	1289.773803710938	581.2433471679688	730.9732666015625	1237.80126953125	561.8556518554688	832.1729736328125	1303.42626953125	418.8330993652344	948.9364013671875	1351.698608398438	397.8182067871094	966.9041137695312	1225.371826171875	338.6220703125	988.3923950195312	1016.168273925781	319.7808837890625	893.1885986328125	1006.705871582031	348.7926635742188	1043.807739257812	823.5291748046875	392.5703430175781	995.5700073242188	792.83447265625	317.7449645996094	1003.000244140625	930.8351440429688	325.0041809082031	1036.4208984375	666.8375854492188	398.349609375	1011.743957519531	737.6497192382812	332.2578125	1057.397583007812	745.25341796875	377.5317993164062	787.9874877929688	1359.589965820312	660.7474975585938	747.1300048828125	1293.980224609375	706.7230834960938	744.2564697265625	1028.888427734375	767.585693359375	715.575439453125	1006.708251953125	711.0623168945312	867.761962890625	838.5265502929688	795.458984375	782.995849609375	811.7518920898438	814.031494140625	749.9442749023438	975.5552368164062	780.2708129882812	883.2037353515625	680.9530639648438	813.2930908203125	880.8754272460938	749.29248046875	831.7859497070312	811.2981567382812	740.05078125	827.6392822265625	783.0656127929688	1507.500854492188	575.2646484375	956.0301513671875	1594.823852539062	523.59423828125	882.4093627929688	1589.8291015625	627.3948974609375	865.7252807617188	1506.819702148438	438.3280639648438	997.4610595703125	877.8040771484375	416.2501220703125	782.312744140625	867.7886962890625	730.1494750976562	902.1728515625	913.6203002929688	727.67041015625	1034.916870117188	915.5103149414062	524.4833984375	957.5670776367188	458.6423950195312	464.8242797851562	994.9297485351562	613.1463012695312	451.5813903808594	821.7808837890625	45.26539611816406	411.9366760253906	916.6221313476562	310.7032775878906	441.9114074707031	965.6842041015625	27.80046653747559	563.8837280273438	880.3540649414062	36.219482421875	551.5379638671875	920.1239624023438	33.76304244995117	457.6876525878906	752.677978515625	46.26228332519531	444.525390625	809.1260375976562	478.1589050292969	717.5687866210938	805.126708984375	739.6322021484375	751.7066650390625	756.4874267578125	44.58144378662109	667.1754150390625	817.292724609375	333.7211303710938	701.565185546875	958.51025390625	32.34344100952148	709.6888427734375	910.7059326171875	37.18507766723633	648.45751953125	854.0669555664062	38.68425369262695	726.2313842773438	727.2843627929688	35.18120193481445	603.0855102539062	
491	4.9	765.4195556640625	959.8684692382812	563.2542114257812	836.5962524414062	954.9158935546875	462.2796020507812	800.0887451171875	1025.220703125	504.1349182128906	984.41943359375	1196.3271484375	604.2694091796875	782.3900146484375	1126.8515625	492.7145385742188	811.0625610351562	1359.795288085938	505.6661682128906	950.5424194335938	1289.640869140625	582.101806640625	731.4244384765625	1237.8310546875	563.0322265625	832.5670776367188	1303.454956054688	419.8446044921875	949.2278442382812	1351.688720703125	398.7068481445312	967.0425415039062	1225.381958007812	339.4136047363281	988.2581176757812	1016.214904785156	320.336669921875	893.1577758789062	1006.778869628906	349.46435546875	1043.903076171875	823.6334838867188	392.8778991699219	995.4724731445312	792.9016723632812	318.1895751953125	1002.898071289062	930.9224243164062	325.4959106445312	1036.722778320312	666.9548950195312	398.6987915039062	1011.738708496094	737.7352294921875	332.6573181152344	1057.523071289062	745.381591796875	377.7961120605469	788.6943359375	1359.53515625	661.8575439453125	747.8493041992188	1293.945922851562	707.861328125	744.7214965820312	1028.921997070312	768.8721313476562	715.954345703125	1006.7138671875	712.404052734375	868.2176513671875	838.66650390625	796.9241333007812	783.5822143554688	811.9020385742188	815.5675659179688	750.3949584960938	975.60546875	781.6061401367188	883.9193115234375	681.1761474609375	815.15185546875	881.5167846679688	749.5592651367188	833.501220703125	811.9558715820312	740.264404296875	829.3280029296875	783.7222290039062	1507.540649414062	576.2777709960938	956.7544555664062	1594.708374023438	524.5776977539062	883.1779174804688	1589.798217773438	628.38671875	866.3167114257812	1506.814697265625	439.4443969726562	997.390380859375	877.7156982421875	416.8310852050781	782.7667846679688	867.7079467773438	731.1932373046875	902.7869262695312	913.4398803710938	728.4586181640625	1035.149291992188	915.3764038085938	525.02099609375	957.4989013671875	458.5507202148438	465.0663452148438	994.934326171875	613.0680541992188	451.9621887207031	821.693115234375	45.31501007080078	412.0442810058594	916.5588989257812	310.70361328125	442.0879821777344	965.6881103515625	27.80324172973633	563.8888549804688	880.3455810546875	36.19551086425781	551.5413818359375	920.099853515625	33.78350448608398	457.722900390625	752.6475830078125	46.21258544921875	444.6077575683594	809.4063110351562	478.013427734375	718.0563354492188	805.8165893554688	739.4781494140625	752.5772094726562	756.4881591796875	44.54552841186523	667.178466796875	817.419677734375	333.5953674316406	701.8487548828125	958.4990844726562	32.31941604614258	709.6849975585938	910.708740234375	37.17323303222656	648.4549560546875	854.0621948242188	38.67199325561523	726.2239990234375	727.2850341796875	35.14808654785156	603.109619140625	
492	4.91	765.6156005859375	959.8101196289062	564.3564453125	836.6346435546875	954.9088134765625	463.1988525390625	800.3239135742188	1025.236450195312	505.1644897460938	984.9172973632812	1196.16650390625	604.96533203125	782.7061157226562	1126.813110351562	493.7420043945312	811.5114135742188	1359.782592773438	506.7380065917969	951.0371704101562	1289.517211914062	582.9071655273438	731.85400390625	1237.871337890625	564.1997680664062	832.8799438476562	1303.481079101562	420.8411865234375	949.4312133789062	1351.690551757812	399.5368041992188	967.07373046875	1225.398193359375	340.1535949707031	988.0972290039062	1016.2587890625	320.8577880859375	893.1527709960938	1006.824340820312	350.1044006347656	1044.156005859375	823.8519287109375	393.2102661132812	995.4935302734375	792.9782104492188	318.71240234375	1002.817565917969	931.041259765625	325.9912719726562	1037.2529296875	667.1511840820312	399.1335754394531	1011.924255371094	737.8587036132812	333.1533203125	1057.87841796875	745.6322021484375	378.1228942871094	789.3867797851562	1359.486694335938	662.9545288085938	748.5724487304688	1293.918090820312	708.9933471679688	745.1696166992188	1028.946166992188	770.1198120117188	716.3535766601562	1006.7392578125	713.6903686523438	868.592529296875	838.7538452148438	798.3284912109375	784.0490112304688	812.0333862304688	817.0269165039062	750.814453125	975.6510009765625	782.8961791992188	884.431640625	681.3269653320312	816.9093017578125	882.01708984375	749.7539672851562	835.1282958984375	812.4613647460938	740.4451904296875	830.9166259765625	784.3917846679688	1507.60498046875	577.2715454101562	957.4605712890625	1594.592529296875	525.5648803710938	883.9525756835938	1589.749267578125	629.3870239257812	866.8502807617188	1506.862548828125	440.5556945800781	997.2485961914062	877.6376342773438	417.3517150878906	783.2481689453125	867.61474609375	732.19287109375	903.3975219726562	913.257080078125	729.2169799804688	1035.352172851562	915.2655029296875	525.5074462890625	957.4275512695312	458.478759765625	465.2625122070312	994.98046875	613.0221557617188	452.3359985351562	821.6128540039062	45.34745407104492	412.15087890625	916.4894409179688	310.7142944335938	442.2439880371094	965.6922607421875	27.80728149414062	563.8922729492188	880.3399658203125	36.17876434326172	551.54443359375	920.0795288085938	33.80072784423828	457.751220703125	752.6242065429688	46.17152786254883	444.6803894042969	809.6337890625	477.8758850097656	718.5206909179688	806.4653930664062	739.3199462890625	753.4104614257812	756.49169921875	44.51066970825195	667.1809692382812	817.527587890625	333.4723815917969	702.1228637695312	958.48974609375	32.30044555664062	709.6812133789062	910.7129516601562	37.16590881347656	648.4520874023438	854.0570678710938	38.6622428894043	726.2178344726562	727.2774658203125	35.10958099365234	603.1358032226562	
493	4.92	765.7896118164062	959.7612915039062	565.4493408203125	836.6202392578125	954.9219970703125	464.0970764160156	800.5343017578125	1025.255859375	506.1741638183594	985.3930053710938	1196.018310546875	605.6070556640625	782.9767456054688	1126.782348632812	494.7674560546875	811.9214477539062	1359.7724609375	507.7834777832031	951.50927734375	1289.403076171875	583.6618041992188	732.266845703125	1237.91943359375	565.3528442382812	833.1080932617188	1303.503540039062	421.8259582519531	949.5547485351562	1351.699829101562	400.3109436035156	967.0021362304688	1225.42041015625	340.8425903320312	987.9144897460938	1016.2978515625	321.3424377441406	893.1600341796875	1006.838562011719	350.7261352539062	1044.552978515625	824.1683349609375	393.5565185546875	995.6148681640625	793.056884765625	319.3070983886719	1002.757202148438	931.1844482421875	326.4888916015625	1037.9716796875	667.4090576171875	399.6263427734375	1012.276184082031	738.010498046875	333.7352905273438	1058.440795898438	745.990966796875	378.4931030273438	790.0628051757812	1359.445434570312	664.0352172851562	749.2948608398438	1293.902954101562	710.117431640625	745.6073608398438	1028.968505859375	771.3291625976562	716.7750854492188	1006.781982421875	714.9205322265625	868.8971557617188	838.7921142578125	799.6671752929688	784.401611328125	812.1461791992188	818.4065551757812	751.2127075195312	975.6963500976562	784.1406860351562	884.7455444335938	681.4078979492188	818.5549926757812	882.3799438476562	749.8771362304688	836.6564331054688	812.8150634765625	740.5938720703125	832.4043579101562	785.0665893554688	1507.6845703125	578.24853515625	958.1424560546875	1594.478881835938	526.5560913085938	884.7178344726562	1589.681030273438	630.3952026367188	867.3323364257812	1506.959350585938	441.6434936523438	997.0443115234375	877.5704345703125	417.8214416503906	783.7628173828125	867.51318359375	733.151611328125	904.0079345703125	913.072021484375	729.94775390625	1035.529296875	915.1738891601562	525.949462890625	957.3615112304688	458.4273376464844	465.4198303222656	995.056884765625	613.0097045898438	452.6953430175781	821.5436401367188	45.36605453491211	412.2492980957031	916.4161987304688	310.7372436523438	442.3804626464844	965.6956787109375	27.81201934814453	563.8941650390625	880.3380126953125	36.16862869262695	551.5474853515625	920.0636596679688	33.81573486328125	457.7716674804688	752.60791015625	46.1417121887207	444.7431030273438	809.8102416992188	477.7493286132812	718.9635009765625	807.0504760742188	739.1553955078125	754.2049560546875	756.4967041015625	44.47556686401367	667.1848754882812	817.6199951171875	333.3518981933594	702.3887329101562	958.4830322265625	32.28717041015625	709.6757202148438	910.7196044921875	37.1656379699707	648.4487915039062	854.052001953125	38.65425491333008	726.2130737304688	727.2603759765625	35.06573104858398	603.1632080078125	
